<?xml version="1.0" ?><!DOCTYPE svg  PUBLIC '-//W3C//DTD SVG 1.1//EN'  'http://www.w3.org/Graphics/SVG/1.1/DTD/svg11.dtd'><svg enable-background="new 0 0 100 100" height="100px" version="1.1" viewBox="0 0 100 100" width="100px" xml:space="preserve" xmlns="http://www.w3.org/2000/svg" xmlns:xlink="http://www.w3.org/1999/xlink"><g id="Layer_1"><g><g><g enable-background="new    "><g><path d="M51.011,61.24h25.25v15.045h-25.25V61.24z" fill="#2E73B7"/></g><g><rect fill="#19486F" height="2.25" width="25.25" x="51.011" y="76.285"/></g></g><g enable-background="new    "><g><rect fill="#2E73B7" height="15.045" width="24.084" x="23.739" y="61.24"/></g><g><rect fill="#19486F" height="2.25" width="24.084" x="23.739" y="76.285"/></g></g><g enable-background="new    "><g><path d="M51.011,41.926h25.25v14.85h-25.25V41.926z" fill="#2E73B7"/></g><g><rect fill="#19486F" height="2.248" width="25.25" x="51.011" y="56.775"/></g></g><g enable-background="new    "><g><path d="M51.011,21.465h25.25v15.997h-25.25V21.465z" fill="#2E73B7"/></g><g><rect fill="#19486F" height="2.249" width="25.25" x="51.011" y="37.462"/></g></g><g enable-background="new    "><g><rect fill="#2E73B7" height="14.85" width="24.084" x="23.739" y="41.926"/></g><g><rect fill="#19486F" height="2.248" width="24.084" x="23.739" y="56.775"/></g></g><g enable-background="new    "><g><rect fill="#2E73B7" height="15.997" width="24.084" x="23.739" y="21.465"/></g><g><rect fill="#19486F" height="2.249" width="24.084" x="23.739" y="37.462"/></g></g></g><ellipse cx="63.26" cy="29.834" fill="#F6F7F7" rx="4.936" ry="4.902"/><ellipse cx="63.26" cy="49.221" fill="#F6F7F7" rx="4.936" ry="4.902"/><ellipse cx="63.26" cy="68.83" fill="#F6F7F7" rx="4.936" ry="4.904"/></g></g></svg>