<?xml version="1.0" ?><!DOCTYPE svg  PUBLIC '-//W3C//DTD SVG 1.1//EN'  'http://www.w3.org/Graphics/SVG/1.1/DTD/svg11.dtd'><svg enable-background="new 0 0 64 64" version="1.1" viewBox="0 0 64 64" xml:space="preserve" xmlns="http://www.w3.org/2000/svg" xmlns:xlink="http://www.w3.org/1999/xlink"><g id="Home"/><g id="Camera"/><g id="Mail"/><g id="Print"/><g id="Save"/><g id="Folder"/><g id="Search"/><g id="User"/><g id="Pin"/><g id="Calendar"/><g id="Gallery"/><g id="time"/><g id="Pin_1_"/><g id="Setting"/><g id="Player"/><g id="Lock"/><g id="Trash_Can"/><g id="Notification"/><g id="Record"/><g id="Shopping_Bag"><g><path d="M59,59.1C57.4,61,55.2,62,52.8,62H11.2c-2.4,0-4.6-1-6.1-2.9c-1.5-1.8-2.2-4.2-1.7-6.6l7.9-44    C11.8,4.8,15.1,2,19,2h26c3.9,0,7.2,2.8,7.9,6.6l7.9,44C61.1,54.9,60.5,57.3,59,59.1z" fill="#9C27B0"/></g><g><path d="M32,35c-7.2,0-13-5.8-13-13v-8c0-1.1,0.9-2,2-2s2,0.9,2,2v8c0,5,4,9,9,9s9-4,9-9v-8c0-1.1,0.9-2,2-2    s2,0.9,2,2v8C45,29.2,39.2,35,32,35z" fill="#FFC10A"/></g></g></svg>