<?xml version="1.0" ?><svg id="Flat" viewBox="0 0 64 64" xmlns="http://www.w3.org/2000/svg"><defs><style>.cls-1{fill:#212529;}.cls-2{fill:#faa307;}.cls-3{fill:#343a40;}.cls-4{fill:#ffd100;}.cls-5{fill:#fff;}</style></defs><g id="Color"><path class="cls-1" d="M6,20H58a0,0,0,0,1,0,0V55a6,6,0,0,1-6,6H12a6,6,0,0,1-6-6V20A0,0,0,0,1,6,20Z"/><rect class="cls-2" height="41" width="10" x="27" y="20"/><rect class="cls-3" height="9" rx="2" width="58" x="3" y="11"/><circle class="cls-4" cx="32" cy="40.5" r="16"/><circle class="cls-5" cx="26" cy="34.5" r="3"/><circle class="cls-5" cx="38" cy="46.5" r="3"/><path class="cls-5" d="M24.5,48a2.109,2.109,0,0,1,.009-2.991L36.586,33.086a2,2,0,0,1,2.828,2.828L27.491,47.991A2.109,2.109,0,0,1,24.5,48Z"/><path class="cls-4" d="M46.514,3.194,32,9,17.486,3.194A4,4,0,0,0,12,6.908V11H52V6.908A4,4,0,0,0,46.514,3.194Z"/><rect class="cls-2" height="4" width="10" x="27" y="7"/><rect class="cls-4" height="9" width="10" x="27" y="11"/></g></svg>